# Blender v2.79 (sub 0) OBJ File: 'menu.blend'
# www.blender.org
mtllib menu.mtl
o o
v 834.000000 -265.498657 67.262062
v 1216.000000 46.328243 67.162132
v 702.000000 -136.003754 66.970428
v 902.000000 -73.738403 67.123650
v 925.000000 17.177608 67.652504
v 834.000000 181.153214 67.638435
v 997.000000 -33.994133 -139.715408
v 975.000000 -62.078129 66.927498
v 1216.000000 46.627632 -139.356415
v 1020.000000 181.452606 -138.880096
v 1020.000000 181.653214 66.772415
v 834.000000 180.586578 -139.380096
v 698.000000 107.727585 66.815353
v 698.000000 106.660957 -139.337189
v 1159.000000 -200.201813 -139.835312
v 1159.000000 -199.635162 67.183243
v 902.000000 -74.305016 -139.894897
v 878.000000 -19.535221 67.240974
v 975.000000 -62.644768 -140.091049
v 878.000000 -18.735804 -140.143616
v 925.000000 16.610968 -139.366043
v 997.000000 -33.427494 67.303139
v 702.000000 -136.570404 -140.048111
v 834.000000 -264.699219 -140.122498
vn -0.7931 0.6090 -0.0017
vn 0.1947 -0.9809 -0.0038
vn 0.5682 0.8229 -0.0008
vn -0.0047 1.0000 -0.0010
vn -0.0003 0.0025 1.0000
vn -0.4751 0.8799 -0.0024
vn -0.1577 0.9875 -0.0027
vn -0.9999 -0.0164 0.0000
vn 0.9144 0.4049 -0.0011
vn 0.6011 -0.7992 -0.0031
vn 0.9744 -0.2250 0.0006
vn -0.0001 -0.0022 1.0000
vn -0.7003 -0.7138 -0.0028
vn -0.5750 -0.8181 0.0022
vn 0.1986 -0.9801 0.0027
vn 0.5667 0.8239 0.0012
vn -0.0027 1.0000 -0.0027
vn 0.0046 0.0027 1.0000
vn 0.0061 0.0018 1.0000
vn -0.4776 0.8786 -0.0045
vn -0.9999 -0.0164 0.0001
vn 0.9180 0.3965 0.0015
vn 0.6156 -0.7881 0.0022
vn 0.9742 -0.2258 -0.0003
vn -0.0062 -0.0033 1.0000
vn -0.0045 -0.0030 1.0000
vn -0.0019 0.0006 1.0000
vn -0.0011 0.0011 1.0000
vn -0.0001 0.0017 1.0000
vn 0.0027 -0.0002 1.0000
vn 0.0007 -0.0001 1.0000
vn -0.0071 -0.0077 0.9999
vn -0.6965 -0.7175 0.0020
usemtl None
s off
f 7//1 8//1 22//1
f 15//2 1//2 24//2
f 2//3 10//3 11//3
f 12//4 11//4 10//4
f 22//5 2//5 11//5
f 12//6 13//6 6//6
f 17//7 8//7 19//7
f 3//8 14//8 23//8
f 17//9 18//9 4//9
f 21//10 18//10 20//10
f 9//11 16//11 15//11
f 4//12 18//12 3//12
f 3//13 24//13 1//13
f 22//14 21//14 7//14
f 7//1 19//1 8//1
f 15//15 16//15 1//15
f 2//16 9//16 10//16
f 12//17 6//17 11//17
f 6//18 5//18 11//18
f 5//19 22//19 11//19
f 12//20 14//20 13//20
f 17//7 4//7 8//7
f 3//21 13//21 14//21
f 17//22 20//22 18//22
f 21//23 5//23 18//23
f 9//24 2//24 16//24
f 18//25 5//25 6//25
f 6//26 13//26 18//26
f 13//27 3//27 18//27
f 3//28 1//28 4//28
f 1//29 16//29 8//29
f 4//30 1//30 8//30
f 16//31 2//31 22//31
f 16//32 22//32 8//32
f 3//33 23//33 24//33
f 22//14 5//14 21//14
o i
v 683.000000 304.978180 87.167305
v 742.000000 -254.904999 -139.086609
v 683.000000 305.983337 -138.573685
v 509.000000 304.978180 87.167305
v 509.000000 305.117310 -139.073685
v 502.000000 -254.404999 -139.952637
v 502.000000 -254.178101 87.654373
v 742.000000 -255.044128 87.154373
vn -0.0021 -1.0000 0.0010
vn -0.9999 0.0125 -0.0000
vn -0.0050 1.0000 0.0006
vn 0.0021 0.0002 1.0000
vn 0.9945 0.1046 0.0005
vn -0.0036 -1.0000 -0.0006
vn 0.0000 1.0000 0.0045
vn 0.0000 0.0009 1.0000
vn 0.9945 0.1048 0.0001
usemtl None
s off
f 26//34 31//34 30//34
f 31//35 29//35 30//35
f 28//36 27//36 29//36
f 25//37 31//37 32//37
f 25//38 26//38 27//38
f 26//39 32//39 31//39
f 31//35 28//35 29//35
f 28//40 25//40 27//40
f 25//41 28//41 31//41
f 25//42 32//42 26//42
o r
v 26.000000 -214.037079 98.128098
v 228.000000 -115.924934 98.192871
v 220.000000 59.710934 97.982643
v 28.000000 328.994843 97.569221
v 280.000000 116.646172 97.367905
v 541.000000 -132.915314 97.621063
v 471.000000 234.480759 97.272415
v 258.000000 330.360870 97.203201
v 258.000000 330.535889 -137.099960
v 28.000000 329.169861 -136.733932
v 471.000000 234.655792 -137.030731
v 388.000000 -26.931971 -137.947464
v 280.000000 116.821205 -136.935257
v 220.000000 59.019936 -136.820526
v 223.000000 163.653214 97.949326
v 223.000000 162.962219 -136.853836
v 475.000000 27.462215 97.839043
v 388.000000 -26.740971 97.721733
v 475.000000 26.771231 -136.964111
v 541.000000 -133.106293 -138.048111
v 225.000000 -207.031921 -138.005188
v 26.000000 -214.228088 -137.541077
v 225.000000 -207.340942 98.530045
v 228.000000 -116.115929 -137.476318
v 366.000000 -261.544128 98.412704
v 366.000000 -261.235107 -138.122498
vn 0.5253 -0.8509 0.0007
vn 0.0361 -0.9993 -0.0013
vn -0.7258 -0.6879 0.0006
vn 0.9995 -0.0330 -0.0000
vn 0.5907 -0.8069 0.0007
vn -0.6938 0.7202 0.0005
vn -0.0059 1.0000 0.0007
vn 0.0046 0.0059 1.0000
vn 0.5701 0.8216 -0.0007
vn 0.4105 0.9119 0.0007
vn 0.9996 -0.0289 0.0001
vn -1.0000 0.0037 -0.0000
vn -0.6362 -0.7715 0.0023
vn 0.9998 0.0192 0.0000
vn -0.0009 0.0012 1.0000
vn 0.5288 -0.8487 0.0025
vn 0.0336 -0.9994 0.0008
vn -0.7247 -0.6891 -0.0009
vn 0.9995 -0.0328 0.0000
vn 0.5922 -0.8058 -0.0011
vn -0.6883 0.7254 -0.0021
vn 0.0022 0.0013 1.0000
vn 0.0014 0.0028 1.0000
vn 0.0025 0.0027 1.0000
vn -0.0020 0.0010 1.0000
vn -0.0012 0.0027 1.0000
vn 0.0000 0.0008 1.0000
vn 0.0016 0.0009 1.0000
vn -0.6292 -0.7773 -0.0006
vn 0.9998 0.0193 -0.0001
vn -0.0016 0.0004 1.0000
vn -0.0007 0.0010 1.0000
vn -0.0021 0.0038 1.0000
usemtl None
s off
f 51//43 50//43 44//43
f 55//44 54//44 53//44
f 56//45 57//45 34//45
f 56//46 55//46 53//46
f 38//47 58//47 52//47
f 46//48 37//48 45//48
f 42//49 40//49 41//49
f 37//50 35//50 50//50
f 44//51 38//51 52//51
f 40//52 43//52 41//52
f 48//53 35//53 46//53
f 33//54 42//54 54//54
f 48//55 37//55 47//55
f 39//56 51//56 43//56
f 35//57 33//57 34//57
f 51//58 49//58 50//58
f 55//59 33//59 54//59
f 56//60 58//60 57//60
f 56//61 34//61 55//61
f 38//62 57//62 58//62
f 46//63 35//63 37//63
f 42//49 36//49 40//49
f 35//64 34//64 50//64
f 34//65 57//65 50//65
f 57//66 38//66 50//66
f 50//67 49//67 37//67
f 49//68 39//68 37//68
f 39//69 40//69 37//69
f 40//70 36//70 37//70
f 44//51 50//51 38//51
f 40//52 39//52 43//52
f 48//53 47//53 35//53
f 33//54 36//54 42//54
f 48//71 45//71 37//71
f 39//72 49//72 51//72
f 35//73 47//73 36//73
f 36//74 33//74 35//74
f 33//75 55//75 34//75
o a
v -143.000000 -255.883881 108.608871
v -616.000000 -118.326851 108.353119
v -405.000000 -193.618500 108.762070
v -263.000000 28.158367 108.633278
v -178.000000 8.435939 108.793526
v -94.000000 270.502563 -137.119202
v -94.000000 270.157684 107.478188
v 111.000000 -256.749878 108.108871
v -405.000000 -193.139618 -138.067368
v -209.000000 119.574364 108.296112
v -209.000000 119.053261 -136.801285
v -152.000000 -176.149261 -137.495575
v -143.000000 -255.404999 -138.220581
v -290.000000 309.947449 -137.439697
v -290.000000 309.602539 107.157684
v -328.000000 -118.347984 -137.610291
v -152.000000 -176.128113 108.467850
v -178.000000 8.914816 -138.035919
v -263.000000 28.137259 -137.330139
v 111.000000 -256.770996 -137.854553
v -328.000000 -118.326851 108.353119
v -616.000000 -117.847984 -138.476318
vn -0.9632 -0.2687 0.0006
vn 0.0009 0.0047 1.0000
vn 0.8610 -0.5086 0.0011
vn -0.3361 -0.9418 -0.0018
vn -0.9937 -0.1121 0.0000
vn -0.7955 0.6060 0.0012
vn 0.2260 0.9741 -0.0001
vn -0.0021 -0.0010 1.0000
vn 0.6991 -0.7150 -0.0014
vn -0.0054 -1.0000 0.0001
vn -0.3120 -0.9501 0.0001
vn 0.1973 0.9803 0.0014
vn 0.9320 0.3624 0.0005
vn -0.9626 -0.2709 -0.0005
vn 0.0020 0.0020 1.0000
vn 0.0054 0.0033 1.0000
vn 0.0009 -0.0016 1.0000
vn -0.0005 0.0058 1.0000
vn -0.0029 0.0050 1.0000
vn -0.0023 0.0050 1.0000
vn -0.0014 0.0015 1.0000
vn 0.8598 -0.5107 0.0000
vn -0.9936 -0.1128 -0.0002
vn -0.7954 0.6061 0.0009
vn 0.2206 0.9754 0.0019
vn -0.0013 -0.0019 1.0000
vn 0.0127 -0.0075 0.9999
vn 0.6967 -0.7173 0.0001
vn -0.0034 -1.0000 -0.0019
vn 0.9320 0.3626 -0.0000
usemtl None
s off
f 69//76 63//76 68//76
f 65//77 68//77 63//77
f 62//78 69//78 68//78
f 60//79 67//79 61//79
f 70//80 59//80 75//80
f 73//81 80//81 60//81
f 63//82 77//82 62//82
f 79//83 63//83 62//83
f 67//84 79//84 61//84
f 66//85 71//85 78//85
f 79//86 70//86 75//86
f 64//87 73//87 65//87
f 65//88 78//88 64//88
f 69//89 76//89 63//89
f 59//90 66//90 75//90
f 66//91 65//91 63//91
f 75//92 66//92 63//92
f 65//93 73//93 68//93
f 73//94 60//94 62//94
f 68//95 73//95 62//95
f 60//96 61//96 62//96
f 62//97 77//97 69//97
f 60//79 80//79 67//79
f 70//98 71//98 59//98
f 73//99 72//99 80//99
f 63//100 76//100 77//100
f 79//101 75//101 63//101
f 62//102 61//102 79//102
f 67//103 74//103 79//103
f 66//104 59//104 71//104
f 79//86 74//86 70//86
f 64//87 72//87 73//87
f 65//105 66//105 78//105
o m
v -699.000000 252.497421 118.066643
v -698.000000 -128.790955 118.477478
v -523.000000 -83.367210 -138.198746
v -512.000000 -240.646667 -137.782745
v -512.000000 -240.795410 118.474899
v -523.000000 -83.515968 118.058891
v -456.000000 283.380096 118.576263
v -294.000000 -161.039673 118.333878
v -456.000000 283.528870 -137.681366
v -643.000000 332.253174 117.925636
v -643.000000 332.767944 -136.965988
v -699.000000 252.146179 -137.324982
v -929.000000 328.303833 -137.233932
v -929.000000 328.655090 118.157684
v -732.000000 328.655090 118.157684
v -775.000000 -35.142887 118.274284
v -769.000000 -258.285767 118.769119
v -732.000000 329.169861 -136.733932
v -603.000000 23.173147 -136.732071
v -603.000000 23.524378 118.659554
v -294.000000 -161.756927 -138.423752
v -698.000000 -128.642212 -137.780167
v -775.000000 -35.860161 -138.483353
v -1013.000000 -259.003052 -137.988525
v -1013.000000 -259.151855 118.269119
v -769.000000 -259.003052 -137.988525
vn -0.0027 0.0014 1.0000
vn 0.9397 0.3419 -0.0010
vn 0.0000 -1.0000 -0.0006
vn -0.0044 1.0000 -0.0014
vn -0.7724 -0.6351 -0.0004
vn 0.3403 -0.9403 0.0026
vn -0.8184 0.5746 0.0012
vn -0.8010 -0.5987 0.0008
vn 0.2529 0.9675 0.0006
vn -0.9976 -0.0698 -0.0000
vn 0.9996 0.0269 -0.0001
vn 0.8485 -0.5292 0.0007
vn -0.9899 0.1416 0.0001
vn 0.9192 0.3938 -0.0005
vn -0.0002 0.0002 1.0000
vn -0.0021 0.0022 1.0000
vn -0.0023 0.0003 1.0000
vn 0.0000 -0.0012 1.0000
vn -0.0025 0.0036 1.0000
vn -0.0003 0.0026 1.0000
vn -0.0016 -0.0011 1.0000
vn 0.0006 0.0006 1.0000
vn 0.0045 -0.0022 1.0000
vn -0.0023 0.0016 1.0000
vn 0.9395 0.3425 0.0002
vn 0.0035 -1.0000 0.0028
vn 0.0000 1.0000 0.0020
vn -0.7695 -0.6386 0.0018
vn 0.3436 -0.9391 -0.0005
vn -0.8213 0.5705 -0.0008
vn -0.7997 -0.6005 -0.0003
vn 0.2546 0.9670 0.0020
vn 0.8477 -0.5305 -0.0003
vn -0.9899 0.1415 -0.0002
vn 0.9176 0.3976 0.0008
usemtl None
s off
f 81//106 96//106 100//106
f 89//107 88//107 101//107
f 106//108 105//108 104//108
f 94//109 98//109 93//109
f 96//110 102//110 82//110
f 88//111 84//111 101//111
f 91//112 81//112 90//112
f 99//113 86//113 100//113
f 89//114 90//114 87//114
f 86//115 84//115 85//115
f 97//116 103//116 96//116
f 82//117 99//117 100//117
f 105//118 93//118 104//118
f 98//119 81//119 92//119
f 94//120 105//120 96//120
f 105//121 97//121 96//121
f 96//122 82//122 100//122
f 81//123 95//123 94//123
f 87//124 90//124 81//124
f 85//125 88//125 86//125
f 88//126 87//126 86//126
f 81//127 94//127 96//127
f 86//128 87//128 100//128
f 87//129 81//129 100//129
f 89//130 87//130 88//130
f 106//131 97//131 105//131
f 94//132 95//132 98//132
f 96//133 103//133 102//133
f 88//134 85//134 84//134
f 91//135 92//135 81//135
f 99//136 83//136 86//136
f 89//137 91//137 90//137
f 86//115 83//115 84//115
f 97//116 106//116 103//116
f 82//138 102//138 99//138
f 105//139 94//139 93//139
f 98//140 95//140 81//140
