# Blender v2.79 (sub 0) OBJ File: 'course2.blend'
# www.blender.org
mtllib course2.mtl
o path3
v 6512.000977 -280.000000 -32.000000
v 6224.000977 -184.000000 -32.000000
v 5936.000977 -184.000000 -32.000000
v 5744.000977 -280.000000 -32.000000
v 5104.000000 328.000000 -32.000000
v 4976.000000 -184.000000 -32.000000
v 7088.000977 -280.000000 -32.000000
v 7408.000977 232.000000 -32.000000
v 7664.000977 -280.000000 -32.000000
v 7760.000977 -280.000000 -32.000000
v 8048.000977 -184.000000 -32.000000
v 8144.000977 -184.000000 -32.000000
v 8240.000977 -88.000000 -32.000000
v 8624.000977 -280.000000 -32.000000
v 8912.000977 -280.000000 -32.000000
v 9104.000977 -184.000000 -32.000000
v 9392.000977 -184.000000 -32.000000
v 9584.000977 -280.000000 -32.000000
v 9872.000977 -280.000000 -32.000000
v 9968.000977 -184.000000 -32.000000
v 10160.000977 -88.000000 -32.000000
v 10448.000977 -88.000000 -32.000000
v 10640.500977 -184.000000 -32.000000
v 10880.500977 328.000000 -32.000000
v 11024.500977 -272.000000 -32.000000
v 11216.500977 -176.000000 -32.000000
v 11312.500977 -80.000000 -32.000000
v 11504.500977 16.000000 -32.000000
v 11792.500977 16.000000 -32.000000
v 11984.500977 -80.000000 -32.000000
v 11984.500977 -80.000000 -32.000000
v 12080.500977 -176.000000 -32.000000
v 12273.000977 -272.000000 -32.000000
v 14592.000000 -272.000000 -32.000000
l 2 1
l 3 2
l 4 3
l 5 4
l 6 5
l 1 7
l 7 8
l 8 9
l 9 10
l 10 11
l 11 12
l 12 13
l 13 14
l 14 15
l 15 16
l 16 17
l 17 18
l 18 19
l 19 20
l 20 21
l 21 22
l 22 23
l 23 24
l 24 25
l 25 26
l 26 27
l 27 28
l 28 29
l 29 30
l 30 31
l 31 32
l 32 33
l 33 34
o path2
v -4047.999023 -272.000000 -32.000000
v -3759.999023 -176.000000 -32.000000
v -3567.999023 -80.000000 -32.000000
v -3279.999023 16.000000 -32.000000
v -3087.999023 16.000000 -32.000000
v -2895.999023 432.000000 -32.000000
v -2703.999023 16.000000 -32.000000
v -1743.999023 16.000000 -32.000000
v -1327.999023 16.000000 -32.000000
v -1071.999023 528.000000 -32.000000
v -591.999023 16.000000 -32.000000
v 272.000977 -272.000000 -32.000000
v 560.000977 -176.000000 -32.000000
v 752.000977 -80.000000 -32.000000
v 2384.000977 328.000000 -32.000000
v 944.000977 16.000000 -32.000000
v 1040.000977 528.000000 -32.000000
v 1232.000977 -280.000000 -32.000000
v 2192.000977 -280.000000 -32.000000
v 2288.000977 -184.000000 -32.000000
v 2640.000977 -280.000000 -32.000000
v 2864.000977 328.000000 -32.000000
v 2992.000977 -280.000000 -32.000000
l 35 36
l 36 37
l 37 38
l 38 39
l 39 40
l 40 41
l 41 42
l 42 43
l 43 44
l 44 45
l 45 46
l 46 47
l 47 48
l 53 49
l 48 50
l 50 51
l 51 52
l 52 53
l 53 54
l 49 55
l 55 56
l 56 57
o path1
v -10863.999023 -176.000000 -32.000000
v -11151.999023 -176.000000 -32.000000
v -11439.999023 -272.000000 -32.000000
v -13417.999023 -272.000000 -32.000000
v -10575.999023 -272.000000 -32.000000
v -10191.999023 -272.000000 -32.000000
v -9903.999023 -176.000000 -32.000000
v -9615.999023 -176.000000 -32.000000
v -9327.999023 -32.000000 -32.000000
v -9071.999023 -272.000000 -32.000000
v -8271.999023 -272.000000 -32.000000
v -7983.999023 -176.000000 -32.000000
v -7855.999023 336.000000 -32.000000
v -7695.999023 -272.000000 -32.000000
v -7119.999023 -272.000000 -32.000000
v -6863.999023 240.000000 -32.000000
v -6639.999023 -272.000000 -32.000000
v -6159.999023 -272.000000 -32.000000
v -6063.999023 -176.000000 -32.000000
v -5871.999023 -80.000000 -32.000000
v -5583.999023 -80.000000 -32.000000
v -5391.999023 -176.000000 -32.000000
v -5296.000000 -272.000000 -32.000000
l 58 62
l 59 58
l 60 59
l 61 60
l 62 63
l 63 64
l 64 65
l 65 66
l 66 67
l 67 68
l 68 69
l 69 70
l 70 71
l 71 72
l 72 73
l 73 74
l 74 75
l 75 76
l 76 77
l 77 78
l 78 79
l 79 80
o mcoin3
v 10880.500977 -280.000000 0.000000
v 13336.000000 16.000000 0.000000
l 81 82
o coin3
v 6608.000977 -232.000000 0.000000
v 6128.000977 72.000000 0.000000
v 6032.000977 72.000000 0.000000
v 5600.000977 -232.000000 0.000000
v 4688.000977 -136.000000 0.000000
v 5024.000977 -232.000000 0.000000
v 7136.000977 -136.000000 0.000000
v 7328.000977 -40.000000 0.000000
v 7424.000977 8.000000 0.000000
v 7520.000977 -40.000000 0.000000
v 8240.000977 152.000000 0.000000
v 8768.000977 -232.000000 0.000000
v 9200.000977 72.000000 0.000000
v 9296.000977 72.000000 0.000000
v 10288.000977 8.000000 0.000000
v 11312.500977 8.000000 0.000000
v 11984.500977 8.000000 0.000000
v 12369.000977 -224.000000 0.000000
v 12753.000977 -224.000000 0.000000
l 84 83
l 85 84
l 86 85
l 88 86
l 87 88
l 83 89
l 89 90
l 90 91
l 91 92
l 92 93
l 93 94
l 94 95
l 95 96
l 96 97
l 97 98
l 98 99
l 99 100
l 100 101
o mcoin2
v -2991.999023 -176.000000 0.000000
v -1839.999023 -176.000000 0.000000
l 102 103
o mcoin1
v -7839.999023 -262.000000 0.000000
v -7839.999023 -2300.000000 0.000000
l 104 105
o coin2
v -5007.999023 -224.000000 0.000000
v -4623.999023 -224.000000 0.000000
v -4239.999023 -224.000000 0.000000
v -3983.999023 96.000000 0.000000
v -3279.999023 96.000000 0.000000
v -2799.999023 -32.000000 0.000000
v -2415.999023 64.000000 0.000000
v -2031.999023 64.000000 0.000000
v -1551.999023 -176.000000 0.000000
v -1167.999023 -176.000000 0.000000
v -927.999023 64.000000 0.000000
v -783.999023 -176.000000 0.000000
v -399.999023 -176.000000 0.000000
v -15.999023 -176.000000 0.000000
v 368.000977 -176.000000 0.000000
v 560.000977 208.000000 0.000000
v 1136.000977 -88.000000 0.000000
v 1520.000977 -232.000000 0.000000
v 1904.000977 -232.000000 0.000000
v 2336.000977 104.000000 0.000000
v 2432.000977 -232.000000 0.000000
v 2816.000977 -136.000000 0.000000
v 3200.000977 -232.000000 0.000000
v 3584.000977 -232.000000 0.000000
v 3968.000977 -232.000000 0.000000
l 107 106
l 108 107
l 109 108
l 110 109
l 111 110
l 112 111
l 113 112
l 114 113
l 115 114
l 116 115
l 117 116
l 118 117
l 119 118
l 120 119
l 121 120
l 122 121
l 123 122
l 124 123
l 125 124
l 126 125
l 127 126
l 128 127
l 129 128
l 130 129
o coin1
v -12255.999023 -248.000000 0.000000
v -11871.999023 -248.000000 0.000000
v -11487.999023 -248.000000 0.000000
v -12687.999023 -56.000000 0.000000
v -13023.999023 -248.000000 0.000000
v -13417.999023 -248.000000 0.000000
v -12591.999023 -56.000000 0.000000
v -11007.999023 -128.000000 0.000000
v -10383.999023 -248.000000 0.000000
v -9759.999023 -128.000000 0.000000
v -9279.999023 -32.000000 0.000000
v -8895.999023 -224.000000 0.000000
v -8511.999023 -224.000000 0.000000
v -7407.999023 -224.000000 0.000000
v -6831.999023 -8.000000 0.000000
v -6447.999023 -224.000000 0.000000
v -5823.999023 -32.000000 0.000000
v -5631.999023 -32.000000 0.000000
l 132 131
l 133 132
l 137 134
l 134 135
l 135 136
l 131 137
l 138 133
l 139 138
l 140 139
l 141 140
l 142 141
l 143 142
l 144 143
l 145 144
l 146 145
l 147 146
l 148 147
o w2
v 272.000977 -272.000000 -64.000000
v 560.000977 -176.000000 64.000000
v 560.000977 -176.000000 -64.000000
v 752.000977 -80.000000 64.000000
v 752.000977 -80.000000 -64.000000
v 848.000977 16.000000 64.000000
v 848.000977 16.000000 -64.000000
v 944.000977 16.000000 64.000000
v 944.000977 16.000000 -64.000000
v 944.000977 -88.000000 64.000000
v 944.000977 -88.000000 -64.000000
v 1040.000977 -184.000000 64.000000
v 1040.000977 -184.000000 -64.000000
v 1232.000977 -280.000000 64.000000
v 1232.000977 -280.000000 -64.000000
v 2192.000977 -280.000000 64.000000
v 2192.000977 -280.000000 -64.000000
v 2288.000977 -184.000000 64.000000
v 2288.000977 -184.000000 -64.000000
v 2384.000977 -184.000000 64.000000
v 2384.000977 -184.000000 -64.000000
v 2384.000977 -280.000000 64.000000
v 2384.000977 -280.000000 -64.000000
v 2768.000977 -280.000000 64.000000
v 2768.000977 -280.000000 -64.000000
v 2768.000977 -184.000000 64.000000
v 2768.000977 -184.000000 -64.000000
v 2864.000977 -184.000000 64.000000
v 2864.000977 -184.000000 -64.000000
v 2864.000977 -280.000000 64.000000
v 2864.000977 -280.000000 -64.000000
v 4400.000977 -280.000000 64.000000
v 4400.000977 -280.000000 -64.000000
v 4688.000977 -184.000000 64.000000
v 4688.000977 -184.000000 -64.000000
v -4047.999023 -272.000000 64.000000
v -4047.999023 -272.000000 -64.000000
v -3759.999023 -176.000000 64.000000
v -3759.999023 -176.000000 -64.000000
v -3567.999023 -80.000000 64.000000
v -3567.999023 -80.000000 -64.000000
v -3279.999023 16.000000 64.000000
v -3279.999023 16.000000 -64.000000
v -3087.999023 16.000000 64.000000
v -3087.999023 16.000000 -64.000000
v -3087.999023 -272.000000 64.000000
v -3087.999023 -272.000000 -64.000000
v -2895.999023 -272.000000 64.000000
v -2895.999023 -272.000000 -64.000000
v -2895.999023 -80.000000 64.000000
v -2895.999023 -80.000000 -64.000000
v -2703.999023 -80.000000 64.000000
v -2703.999023 -80.000000 -64.000000
v -2703.999023 16.000000 64.000000
v -2703.999023 16.000000 -64.000000
v -1743.999023 16.000000 64.000000
v -1743.999023 16.000000 -64.000000
v -1743.999023 -80.000000 64.000000
v -1743.999023 -80.000000 -64.000000
v -1935.999023 -80.000000 64.000000
v -1935.999023 -80.000000 -64.000000
v -1935.999023 -272.000000 64.000000
v -1935.999023 -272.000000 -64.000000
v 272.000977 -272.000000 64.000000
v -1647.999023 16.000000 64.000000
v -1647.999023 16.000000 -64.000000
v -1647.999023 -80.000000 64.000000
v -1647.999023 -80.000000 -64.000000
v -1071.999023 16.000000 64.000000
v -1071.999023 16.000000 -64.000000
v -1071.999023 112.000000 64.000000
v -1071.999023 112.000000 -64.000000
v -975.999023 112.000000 64.000000
v -975.999023 112.000000 -64.000000
v -975.999023 16.000000 64.000000
v -975.999023 16.000000 -64.000000
v -591.999023 16.000000 64.000000
v -591.999023 16.000000 -64.000000
v -591.999023 -80.000000 64.000000
v -591.999023 -80.000000 -64.000000
v -495.999023 -80.000000 64.000000
v -495.999023 -80.000000 -64.000000
v -495.999023 16.000000 64.000000
v -495.999023 16.000000 -64.000000
v -111.999023 16.000000 64.000000
v -111.999023 16.000000 -64.000000
v -111.999023 -80.000000 64.000000
v -111.999023 -80.000000 -64.000000
v -4671.999023 -272.000000 64.000000
v -4671.999023 -272.000000 -64.000000
v -5296.000000 -272.000000 64.000000
v -5296.000000 -272.000000 -64.000000
v 4976.000000 -184.000000 64.000000
v 4976.000000 -184.000000 -64.000000
vn -0.3162 0.9487 0.0000
vn -0.4472 0.8944 0.0000
vn -0.7071 0.7071 0.0000
vn 0.0000 1.0000 0.0000
vn 1.0000 0.0000 0.0000
vn 0.7071 0.7071 0.0000
vn 0.4472 0.8944 0.0000
vn -1.0000 0.0000 0.0000
vn 0.0000 -1.0000 0.0000
usemtl w2
s off
f 149//1 212//1 150//1 151//1
f 151//2 150//2 152//2 153//2
f 153//3 152//3 154//3 155//3
f 155//4 154//4 156//4 157//4
f 157//5 156//5 158//5 159//5
f 159//6 158//6 160//6 161//6
f 161//7 160//7 162//7 163//7
f 163//4 162//4 164//4 165//4
f 165//3 164//3 166//3 167//3
f 167//4 166//4 168//4 169//4
f 169//5 168//5 170//5 171//5
f 171//4 170//4 172//4 173//4
f 175//4 174//4 176//4 177//4
f 177//5 176//5 178//5 179//5
f 179//4 178//4 180//4 181//4
f 181//1 180//1 182//1 183//1
f 185//1 184//1 186//1 187//1
f 187//2 186//2 188//2 189//2
f 189//1 188//1 190//1 191//1
f 191//4 190//4 192//4 193//4
f 193//5 192//5 194//5 195//5
f 195//4 194//4 196//4 197//4
f 197//8 196//8 198//8 199//8
f 199//4 198//4 200//4 201//4
f 203//4 202//4 204//4 205//4
f 205//5 204//5 206//5 207//5
f 207//9 206//9 208//9 209//9
f 209//5 208//5 210//5 211//5
f 211//4 210//4 212//4 149//4
f 213//8 214//8 216//8 215//8
f 214//4 213//4 217//4 218//4
f 218//8 217//8 219//8 220//8
f 220//4 219//4 221//4 222//4
f 222//5 221//5 223//5 224//5
f 224//4 223//4 225//4 226//4
f 226//5 225//5 227//5 228//5
f 230//9 236//9 235//9 229//9
f 230//8 229//8 231//8 232//8
f 232//4 231//4 233//4 234//4
f 234//5 233//5 235//5 236//5
f 216//9 228//9 227//9 215//9
f 201//8 200//8 202//8 203//8
f 185//4 238//4 237//4 184//4
f 237//4 238//4 240//4 239//4
f 183//4 182//4 241//4 242//4
f 173//8 172//8 174//8 175//8
o w3
v 7664.000977 -280.000000 -64.000000
v 7760.000977 -280.000000 64.000000
v 7760.000977 -280.000000 -64.000000
v 8048.000977 -184.000000 64.000000
v 8048.000977 -184.000000 -64.000000
v 8144.000977 -184.000000 64.000000
v 8144.000977 -184.000000 -64.000000
v 8240.000977 -88.000000 64.000000
v 8240.000977 -88.000000 -64.000000
v 8624.000977 -280.000000 64.000000
v 8624.000977 -280.000000 -64.000000
v 8912.000977 -280.000000 64.000000
v 8912.000977 -280.000000 -64.000000
v 9104.000977 -184.000000 64.000000
v 9104.000977 -184.000000 -64.000000
v 9392.000977 -184.000000 64.000000
v 9392.000977 -184.000000 -64.000000
v 9584.000977 -280.000000 64.000000
v 9584.000977 -280.000000 -64.000000
v 9872.000977 -280.000000 64.000000
v 9872.000977 -280.000000 -64.000000
v 9968.000977 -184.000000 64.000000
v 9968.000977 -184.000000 -64.000000
v 10160.000977 -88.000000 64.000000
v 10160.000977 -88.000000 -64.000000
v 10448.000977 -88.000000 64.000000
v 10448.000977 -88.000000 -64.000000
v 10640.500977 -184.000000 64.000000
v 10640.500977 -184.000000 -64.000000
v 10736.500977 -280.000000 64.000000
v 10736.500977 -280.000000 -64.000000
v 10736.500977 -2432.000000 64.000000
v 10736.500977 -2432.000000 -64.000000
v 11024.500977 -2432.000000 64.000000
v 11024.500977 -2432.000000 -64.000000
v 11024.500977 -272.000000 64.000000
v 11024.500977 -272.000000 -64.000000
v 11216.500977 -176.000000 64.000000
v 11216.500977 -176.000000 -64.000000
v 11312.500977 -80.000000 64.000000
v 11312.500977 -80.000000 -64.000000
v 11504.500977 16.000000 64.000000
v 11504.500977 16.000000 -64.000000
v 11792.500977 16.000000 64.000000
v 11792.500977 16.000000 -64.000000
v 11984.500977 -80.000000 64.000000
v 11984.500977 -80.000000 -64.000000
v 12080.500977 -176.000000 64.000000
v 12080.500977 -176.000000 -64.000000
v 12273.000977 -272.000000 64.000000
v 12273.000977 -272.000000 -64.000000
v 13713.000977 -272.000000 64.000000
v 13713.000977 -272.000000 -64.000000
v 13809.000977 -176.000000 64.000000
v 13809.000977 -176.000000 -64.000000
v 13809.000977 -368.000000 64.000000
v 13809.000977 -368.000000 -64.000000
v 14001.000977 -368.000000 64.000000
v 14001.000977 -368.000000 -64.000000
v 14001.000977 -2432.000000 64.000000
v 14001.000977 -2432.000000 -64.000000
v 14592.000000 -2432.000000 64.000000
v 14592.000000 -2432.000000 -64.000000
v 4688.000977 -184.000000 64.000000
v 4688.000977 -184.000000 -64.000000
v 4976.000977 -184.000000 64.000000
v 4976.000977 -184.000000 -64.000000
v 4976.000977 -280.000000 64.000000
v 4976.000977 -280.000000 -64.000000
v 5744.000977 -280.000000 64.000000
v 5744.000977 -280.000000 -64.000000
v 5936.000977 -184.000000 64.000000
v 5936.000977 -184.000000 -64.000000
v 6224.000977 -184.000000 64.000000
v 6224.000977 -184.000000 -64.000000
v 6512.000977 -280.000000 64.000000
v 6512.000977 -280.000000 -64.000000
v 7088.000977 -280.000000 64.000000
v 7088.000977 -280.000000 -64.000000
v 7088.000977 -184.000000 64.000000
v 7088.000977 -184.000000 -64.000000
v 7184.000977 -184.000000 64.000000
v 7184.000977 -184.000000 -64.000000
v 7184.000977 -2432.000000 64.000000
v 7184.000977 -2432.000000 -64.000000
v 7664.000977 -2432.000000 64.000000
v 7664.000977 -2432.000000 -64.000000
v 7664.000977 -280.000000 64.000000
v 4400.000000 -280.000000 64.000000
v 4400.000000 -280.000000 -64.000000
vn 0.0000 1.0000 0.0000
vn -0.3162 0.9487 0.0000
vn -0.7071 0.7071 0.0000
vn 0.4472 0.8944 0.0000
vn -0.4472 0.8944 0.0000
vn 0.4463 0.8949 0.0000
vn 0.7071 0.7071 0.0000
vn 1.0000 0.0000 0.0000
vn -1.0000 0.0000 0.0000
vn 0.3162 0.9487 0.0000
usemtl w3
s off
f 243//10 330//10 244//10 245//10
f 245//11 244//11 246//11 247//11
f 247//10 246//10 248//10 249//10
f 249//12 248//12 250//12 251//12
f 251//13 250//13 252//13 253//13
f 253//10 252//10 254//10 255//10
f 255//14 254//14 256//14 257//14
f 257//10 256//10 258//10 259//10
f 259//13 258//13 260//13 261//13
f 261//10 260//10 262//10 263//10
f 263//12 262//12 264//12 265//12
f 265//14 264//14 266//14 267//14
f 267//10 266//10 268//10 269//10
f 269//15 268//15 270//15 271//15
f 271//16 270//16 272//16 273//16
f 273//17 272//17 274//17 275//17
f 277//18 276//18 278//18 279//18
f 279//14 278//14 280//14 281//14
f 281//12 280//12 282//12 283//12
f 283//14 282//14 284//14 285//14
f 285//10 284//10 286//10 287//10
f 287//13 286//13 288//13 289//13
f 289//16 288//16 290//16 291//16
f 291//15 290//15 292//15 293//15
f 293//10 292//10 294//10 295//10
f 295//12 294//12 296//12 297//12
f 297//17 296//17 298//17 299//17
f 299//10 298//10 300//10 301//10
f 301//17 300//17 302//17 303//17
f 275//10 274//10 276//10 277//10
f 303//10 302//10 304//10 305//10
f 307//10 306//10 308//10 309//10
f 309//17 308//17 310//17 311//17
f 311//10 310//10 312//10 313//10
f 313//14 312//14 314//14 315//14
f 315//10 314//10 316//10 317//10
f 317//19 316//19 318//19 319//19
f 319//10 318//10 320//10 321//10
f 321//18 320//18 322//18 323//18
f 323//10 322//10 324//10 325//10
f 325//17 324//17 326//17 327//17
f 329//18 328//18 330//18 243//18
f 327//10 326//10 328//10 329//10
f 306//11 307//11 332//11 331//11
o w1
v -14592.000000 -272.000000 64.000000
v -11439.999023 -272.000000 64.000000
v -14592.000000 -272.000000 -64.000000
v -11439.999023 -272.000000 -64.000000
v -11151.999023 -176.000000 64.000000
v -11151.999023 -176.000000 -64.000000
v -10863.999023 -176.000000 64.000000
v -10863.999023 -176.000000 -64.000000
v -10575.999023 -272.000000 64.000000
v -10575.999023 -272.000000 -64.000000
v -10191.999023 -272.000000 64.000000
v -10191.999023 -272.000000 -64.000000
v -9903.999023 -176.000000 64.000000
v -9903.999023 -176.000000 -64.000000
v -9615.999023 -176.000000 64.000000
v -9615.999023 -176.000000 -64.000000
v -9327.999023 -272.000000 64.000000
v -9327.999023 -272.000000 -64.000000
v -8271.999023 -272.000000 64.000000
v -8271.999023 -272.000000 -64.000000
v -7983.999023 -176.000000 64.000000
v -7983.999023 -176.000000 -64.000000
v -7983.999023 -2432.000000 64.000000
v -7983.999023 -2432.000000 -64.000000
v -7695.999023 -2432.000000 64.000000
v -7695.999023 -2432.000000 -64.000000
v -7695.999023 -272.000000 64.000000
v -7695.999023 -272.000000 -64.000000
v -7119.999023 -272.000000 -64.000000
v -7119.999023 -272.000000 64.000000
v -7023.999023 -176.000000 64.000000
v -7023.999023 -176.000000 -64.000000
v -7023.999023 -2432.000000 64.000000
v -7023.999023 -2432.000000 -64.000000
v -6639.999023 -2432.000000 64.000000
v -6639.999023 -2432.000000 -64.000000
v -6639.999023 -272.000000 64.000000
v -6639.999023 -272.000000 -64.000000
v -6159.999023 -272.000000 64.000000
v -6159.999023 -272.000000 -64.000000
v -6063.999023 -176.000000 64.000000
v -6063.999023 -176.000000 -64.000000
v -5871.999023 -80.000000 64.000000
v -5871.999023 -80.000000 -64.000000
v -5583.999023 -80.000000 64.000000
v -5583.999023 -80.000000 -64.000000
v -5391.999023 -176.000000 64.000000
v -5391.999023 -176.000000 -64.000000
v -5296.000000 -272.000000 64.000000
v -5296.000000 -272.000000 -64.000000
v -4048.000000 -272.000000 64.000000
v -4048.000000 -272.000000 -64.000000
vn 0.0000 1.0000 0.0000
vn -0.3162 0.9487 0.0000
vn 0.3162 0.9487 0.0000
vn 1.0000 0.0000 0.0000
vn -1.0000 0.0000 0.0000
vn -0.7071 0.7071 0.0000
vn -0.4472 0.8944 0.0000
vn 0.4472 0.8944 0.0000
vn 0.7071 0.7071 0.0000
usemtl w1
s off
f 333//20 334//20 336//20 335//20
f 336//21 334//21 337//21 338//21
f 338//20 337//20 339//20 340//20
f 340//22 339//22 341//22 342//22
f 342//20 341//20 343//20 344//20
f 344//21 343//21 345//21 346//21
f 346//20 345//20 347//20 348//20
f 348//22 347//22 349//22 350//22
f 350//20 349//20 351//20 352//20
f 352//21 351//21 353//21 354//21
f 354//23 353//23 355//23 356//23
f 360//20 359//20 362//20 361//20
f 358//24 357//24 359//24 360//24
f 356//20 355//20 357//20 358//20
f 361//25 362//25 363//25 364//25
f 364//23 363//23 365//23 366//23
f 376//20 375//20 377//20 378//20
f 368//24 367//24 369//24 370//24
f 370//20 369//20 371//20 372//20
f 372//25 371//25 373//25 374//25
f 374//26 373//26 375//26 376//26
f 378//27 377//27 379//27 380//27
f 380//28 379//28 381//28 382//28
f 382//20 381//20 383//20 384//20
f 366//20 365//20 367//20 368//20
o bg
v -14591.999023 -384.000000 0.000000
v 14591.999023 -384.000000 0.000000
v -14592.000000 384.000000 0.000000
v 14591.999023 384.000000 0.000000
vt 1.000000 1.000000
vt 1.000000 0.000000
vt 0.000000 0.000000
vt 0.000000 1.000000
vn 0.0000 0.0000 1.0000
usemtl bg
s off
f 385/1/29 386/2/29 388/3/29 387/4/29
