# Blender v2.79 (sub 0) OBJ File: 'course1.blend'
# www.blender.org
mtllib course1.mtl
o path2
v 3980.000000 -199.999985 -63.999878
v 3216.000000 -199.999985 -64.000000
v 2924.000000 48.000000 -64.000000
v 2796.000000 -199.999985 -64.000000
v 2188.000000 -199.999985 -64.000000
v 1676.000000 256.000000 -64.000000
v 1508.000000 -199.999985 -64.000000
v 1204.000000 -199.999985 -64.000000
v 820.000000 -104.000000 -63.999969
v 432.000000 160.000000 -64.000000
v 288.000000 -103.999992 -64.000000
v 4076.000000 -103.999992 -63.999878
v 4372.000000 -103.999992 -64.000000
v 4564.000000 -103.999992 -64.000000
v 4948.000000 -8.000000 -64.000000
v 5132.000000 -8.000000 -64.000000
v 5420.000000 -8.000000 -64.000000
v 5716.000000 -8.000000 -63.999756
v 5908.000000 -103.999992 -63.999756
v 6100.000000 -103.999992 -63.999756
v 6388.000000 -103.999992 -63.999756
v 6676.000000 -199.999985 -63.999756
v 8560.000000 -199.999985 -63.999756
v 8688.000000 64.000015 -63.999756
v 10244.000000 -199.999985 -64.000000
l 2 1
l 3 2
l 4 3
l 5 4
l 6 5
l 7 6
l 8 7
l 9 8
l 10 9
l 11 10
l 1 12
l 12 13
l 13 14
l 14 15
l 15 16
l 16 17
l 17 18
l 18 19
l 19 20
l 20 21
l 21 22
l 22 23
l 23 24
l 24 25
o path1
v -5216.000000 136.000000 -32.000000
v -5424.000000 -15.999999 -32.000000
v -5536.000000 -16.000000 -32.000000
v -5824.000000 -111.999992 -32.000244
v -6000.000000 -191.999985 -32.000244
v -6384.000000 -191.999985 -32.000244
v -6672.000000 -95.999992 -32.000244
v -6768.000000 -95.999992 -32.000244
v -7056.000000 -191.999985 -32.000244
v -4928.000000 -112.000000 -32.000000
v -4664.000000 -16.000000 -32.000000
v -4536.000000 -15.999999 -32.000000
v -4248.000000 -111.999992 -32.000000
v -3712.000000 -112.000000 -32.000000
v -3584.000000 152.000000 -32.000000
v -2744.000000 -112.000000 -32.000000
v -2744.000000 152.000000 -32.000000
v -2548.000000 -16.000000 -32.000000
v -1868.000000 -15.999999 -32.000061
v -1868.000000 -15.999999 -32.000061
v -1388.000000 -207.999985 -32.000000
v -968.000000 32.000000 -32.000000
v -524.000000 -207.999985 -32.000000
v -236.000000 -103.999992 -32.000000
l 28 27
l 27 26
l 29 28
l 30 29
l 31 30
l 32 31
l 33 32
l 34 33
l 26 35
l 35 36
l 36 37
l 37 38
l 38 39
l 39 40
l 40 41
l 41 42
l 42 43
l 43 44
l 44 45
l 45 46
l 46 47
l 47 48
l 48 49
o coin2
v -152.000000 -32.000000 0.000000
v 288.000000 -80.000000 0.000000
v 432.000000 160.000000 0.000000
v 432.000000 -32.000000 0.000000
v 6388.000000 -199.999985 64.000244
v 1508.000000 -192.000000 0.000000
v 1676.000000 256.000000 0.000000
v 1676.000000 64.000000 0.000000
v 1676.000000 -128.000000 0.000000
v 2188.000000 -176.000000 0.000000
v 2412.000000 -176.000000 0.000000
v 2692.000000 -176.000000 0.000000
v 3216.000000 -176.000000 0.000000
v 4548.000000 96.000000 0.000000
v 5284.000000 120.000000 0.000000
v 5284.000000 -96.000000 0.000000
v 5572.000000 32.000000 0.000000
v 5916.000000 8.000000 0.000000
v 6236.000000 -64.000000 0.000000
v 6676.000000 -192.000000 0.000000
v 7012.000000 -192.000000 0.000000
v 7300.000000 -192.000000 0.000000
l 50 51
l 51 52
l 52 53
l 55 56
l 56 57
l 57 58
l 58 59
l 59 60
l 60 61
l 61 62
l 62 63
l 63 64
l 64 65
l 65 66
l 66 67
l 67 68
l 68 69
l 69 70
l 70 71
l 53 55
o water2
v -908.000000 -207.999969 64.000000
v -908.000000 -79.999977 64.000000
v -908.000000 -207.999969 -64.000000
v -908.000000 -79.999977 -64.000000
v -620.000000 -207.999969 64.000000
v -620.000000 -79.999977 64.000000
v -620.000000 -207.999969 -64.000000
v -620.000000 -79.999977 -64.000000
vn -1.0000 0.0000 0.0000
vn 0.0000 0.0000 -1.0000
vn 1.0000 0.0000 0.0000
vn 0.0000 0.0000 1.0000
vn 0.0000 -1.0000 0.0000
vn 0.0000 1.0000 0.0000
usemtl None
s off
f 72//1 73//1 75//1 74//1
f 74//2 75//2 79//2 78//2
f 78//3 79//3 77//3 76//3
f 76//4 77//4 73//4 72//4
f 74//5 78//5 76//5 72//5
f 79//6 75//6 73//6 77//6
o water1
v -3600.000000 -111.999992 64.000000
v -3600.000000 16.000008 64.000000
v -3600.000000 -111.999992 -64.000000
v -3600.000000 16.000008 -64.000000
v -3408.000000 -111.999992 64.000000
v -3408.000000 16.000008 64.000000
v -3408.000000 -111.999992 -64.000000
v -3408.000000 16.000008 -64.000000
vn -1.0000 0.0000 0.0000
vn 0.0000 0.0000 -1.0000
vn 1.0000 0.0000 0.0000
vn 0.0000 0.0000 1.0000
vn 0.0000 -1.0000 0.0000
vn 0.0000 1.0000 0.0000
usemtl None
s off
f 80//7 81//7 83//7 82//7
f 82//8 83//8 87//8 86//8
f 86//9 87//9 85//9 84//9
f 84//10 85//10 81//10 80//10
f 82//11 86//11 84//11 80//11
f 87//12 83//12 81//12 85//12
o mcoin2
v 2924.000000 48.000000 0.000000
v 8688.000000 64.000000 0.000000
l 88 89
o box2
v 1676.000000 364.720032 0.000000
v 1676.000000 176.480026 0.000000
v 1676.000000 -11.759979 0.000000
v 1676.000000 -199.999985 0.000000
v 432.000000 272.480042 0.000000
v 432.000000 84.240013 0.000000
v 432.000000 -103.999992 0.000000
l 90 91
l 91 92
l 92 93
l 95 96
l 94 95
o box1
v 432.000000 272.480042 0.000000
v 432.000000 84.240013 0.000000
v 432.000000 -103.999992 0.000000
l 98 99
l 97 98
o coin1
v -8576.000000 -176.000000 0.000000
v -8192.000000 -176.000000 0.000000
v -7808.000000 -176.000000 0.000000
v -7424.000000 -176.000000 0.000000
v -7040.000000 -176.000000 0.000000
v -6720.000000 -72.000000 0.000000
v -6208.000000 -176.000000 0.000000
v -5488.000000 32.000000 0.000000
v -5216.000000 136.000000 0.000000
v -4960.000000 136.000000 0.000000
v -4256.000000 -96.000000 0.000000
v -3744.000000 96.000000 0.000000
v -3584.000000 152.000000 0.000000
v -2880.000000 -104.000000 0.000000
v -2400.000000 40.000000 0.000000
v -2016.000000 40.000000 0.000000
v -1608.000000 -112.000000 0.000000
v -968.000000 -32.000000 0.000000
v -872.000000 16.000000 0.000000
v -152.000000 -32.000000 0.000000
v 288.000000 -80.000000 0.000000
v 432.000000 160.000000 0.000000
v 432.000000 -32.000000 0.000000
l 100 101
l 101 102
l 102 103
l 103 104
l 104 105
l 105 106
l 106 107
l 107 108
l 108 109
l 109 110
l 110 111
l 111 112
l 112 113
l 113 114
l 114 115
l 115 116
l 116 117
l 117 118
l 118 119
l 119 120
l 120 121
l 121 122
o w2
v 3980.000000 -199.999985 -63.999878
v 3980.000000 -199.999985 64.000000
v 4076.000000 -103.999992 -63.999878
v 4076.000000 -103.999992 64.000000
v 4372.000000 -103.999992 -64.000000
v 4372.000000 -103.999992 64.000000
v 4372.000000 -199.999985 -64.000000
v 4372.000000 -199.999985 64.000000
v 4564.000000 -199.999985 -64.000000
v 4564.000000 -199.999985 64.000000
v 4564.000000 -103.999992 -64.000000
v 4564.000000 -103.999992 64.000000
v 4948.000000 -103.999992 -64.000000
v 4948.000000 -103.999992 64.000000
v 4948.000000 -8.000000 -64.000000
v 4948.000000 -8.000000 64.000000
v 5132.000000 -8.000000 -64.000000
v 5132.000000 -8.000000 64.000000
v 5132.000000 -199.999985 -64.000000
v 5132.000000 -199.999985 64.000000
v 5420.000000 -199.999985 -64.000000
v 5420.000000 -199.999985 64.000000
v 5420.000000 -8.000000 -64.000000
v 5420.000000 -8.000000 64.000000
v 5716.000000 -8.000000 -63.999756
v 5716.000000 -8.000000 64.000000
v 5716.000000 -103.999992 -63.999756
v 5716.000000 -103.999992 64.000000
v 5908.000000 -103.999992 -63.999756
v 5908.000000 -103.999992 64.000244
v 5908.000000 -199.999985 -63.999756
v 5908.000000 -199.999985 64.000244
v 6100.000000 -199.999985 -63.999756
v 6100.000000 -199.999985 64.000244
v 6100.000000 -103.999992 -63.999756
v 6100.000000 -103.999992 64.000244
v 6388.000000 -103.999992 -63.999756
v 6388.000000 -103.999992 64.000244
v 6388.000000 -199.999985 -63.999756
v 6388.000000 -199.999985 64.000244
v 9220.000000 -199.999985 -64.000000
v 9220.000000 -199.999985 64.000000
v -236.000000 -103.999992 -64.000000
v 820.000000 -103.999992 -63.999969
v 820.000000 -103.999992 64.000000
v 820.000000 -135.999985 -63.999969
v 820.000000 -135.999985 64.000000
v 1012.000000 -135.999985 -63.999969
v 1012.000000 -135.999985 64.000000
v 1012.000000 -167.999985 -63.999969
v 1012.000000 -167.999985 64.000000
v 1204.000000 -167.999985 -64.000000
v 1204.000000 -167.999985 64.000000
v 1204.000000 -199.999985 -64.000000
v 1204.000000 -199.999985 64.000000
v -236.000000 -103.999992 63.999996
v -524.000000 -207.999985 -64.000015
v -524.000000 -207.999985 63.999985
vt 0.000000 0.000000
vt 0.000000 0.000000
vt 0.000000 0.000000
vt 0.000000 0.000000
vt 0.000000 0.000000
vt 0.000000 0.000000
vt 0.000000 0.000000
vt 0.000000 0.000000
vt 0.000000 0.000000
vt 0.000000 0.000000
vt 0.000000 0.000000
vt 0.000000 0.000000
vt 0.000000 0.000000
vt 0.000000 0.000000
vt 0.000000 0.000000
vt 0.000000 0.000000
vt 0.000000 0.000000
vt 0.000000 0.000000
vt 0.000000 0.000000
vt 0.000000 0.000000
vt 0.000000 0.000000
vt 0.000000 0.000000
vt 0.000000 0.000000
vt 0.000000 0.000000
vt 0.000000 0.000000
vt 0.000000 0.000000
vt 0.000000 0.000000
vt 0.000000 0.000000
vt 0.000000 0.000000
vt 0.000000 0.000000
vt 0.000000 0.000000
vt 0.000000 0.000000
vt 0.000000 0.000000
vt 0.000000 0.000000
vt 0.000000 0.000000
vt 0.000000 0.000000
vt 0.000000 0.000000
vt 0.000000 0.000000
vt 0.000000 0.000000
vt 0.000000 0.000000
vt 0.000000 0.000000
vt 0.000000 0.000000
vt 0.000000 0.000000
vt 0.000000 0.000000
vt 0.000000 0.000000
vt 0.000000 0.000000
vt 0.000000 0.000000
vt 0.000000 0.000000
vt 0.000000 0.000000
vt 0.000000 0.000000
vt 0.000000 0.000000
vt 0.000000 0.000000
vt 0.000000 0.000000
vt 0.000000 0.000000
vt 0.000000 0.000000
vt 0.000000 0.000000
vt 0.000000 0.000000
vt 0.000000 0.000000
vn -0.7071 0.7071 0.0000
vn 0.0000 1.0000 0.0000
vn 1.0000 0.0000 0.0000
vn -1.0000 0.0000 0.0000
vn -0.3396 0.9406 0.0000
usemtl w2
s off
f 123/1/13 124/2/13 126/3/13 125/4/13
f 125/4/14 126/3/14 128/5/14 127/6/14
f 127/6/15 128/5/15 130/7/15 129/8/15
f 129/8/14 130/7/14 132/9/14 131/10/14
f 131/10/16 132/9/16 134/11/16 133/12/16
f 133/12/14 134/11/14 136/13/14 135/14/14
f 135/14/16 136/13/16 138/15/16 137/16/16
f 137/16/14 138/15/14 140/17/14 139/18/14
f 139/18/15 140/17/15 142/19/15 141/20/15
f 141/20/14 142/19/14 144/21/14 143/22/14
f 143/22/16 144/21/16 146/23/16 145/24/16
f 145/24/14 146/23/14 148/25/14 147/26/14
f 147/26/15 148/25/15 150/27/15 149/28/15
f 149/28/14 150/27/14 152/29/14 151/30/14
f 151/30/15 152/29/15 154/31/15 153/32/15
f 153/32/14 154/31/14 156/33/14 155/34/14
f 155/34/16 156/33/16 158/35/16 157/36/16
f 157/36/14 158/35/14 160/37/14 159/38/14
f 159/38/15 160/37/15 162/39/15 161/40/15
f 161/40/14 162/39/14 164/41/14 163/42/14
f 165/43/14 178/44/14 167/45/14 166/46/14
f 166/46/15 167/45/15 169/47/15 168/48/15
f 168/48/14 169/47/14 171/49/14 170/50/14
f 170/50/15 171/49/15 173/51/15 172/52/15
f 172/52/14 173/51/14 175/53/14 174/54/14
f 174/54/15 175/53/15 177/55/15 176/56/15
f 123/1/14 176/56/14 177/55/14 124/2/14
f 178/44/17 165/43/17 179/57/17 180/58/17
o w1
v -9936.000000 -191.999985 -64.000000
v -9936.000000 -191.999985 64.000000
v -7056.000000 -191.999985 -64.000244
v -7056.000000 -191.999985 63.999756
v -6768.000000 -95.999992 -64.000244
v -6768.000000 -95.999992 63.999756
v -6672.000000 -95.999992 -64.000244
v -6672.000000 -95.999992 63.999756
v -6384.000000 -191.999985 -64.000244
v -6384.000000 -191.999985 63.999756
v -6000.000000 -191.999985 -64.000244
v -6000.000000 -191.999985 63.999756
v -5824.000000 -111.999992 -64.000244
v -5824.000000 -111.999992 63.999756
v -5536.000000 -15.999999 -64.000000
v -5536.000000 -15.999999 64.000000
v -5424.000000 -15.999999 -64.000000
v -5424.000000 -15.999999 64.000000
v -5216.000000 -111.999992 -64.000000
v -5216.000000 -111.999992 64.000000
v -4928.000000 -111.999992 -64.000000
v -4928.000000 -111.999992 64.000000
v -4664.000000 -15.999999 -64.000000
v -4664.000000 -15.999999 64.000000
v -4536.000000 -15.999999 -64.000000
v -4536.000000 -15.999999 64.000000
v -4248.000000 -111.999992 -64.000000
v -4248.000000 -111.999992 64.000000
v -236.000000 -103.999992 -64.000000
v -2744.000000 -111.999992 -64.000000
v -2744.000000 -111.999992 64.000000
v -2744.000000 -79.999992 -64.000000
v -2744.000000 -79.999992 64.000000
v -2648.000000 -79.999992 -64.000000
v -2648.000000 -79.999992 64.000000
v -2648.000000 -47.999996 -64.000000
v -2648.000000 -47.999996 64.000000
v -2548.000000 -47.999996 -64.000000
v -2548.000000 -47.999996 64.000000
v -2548.000000 -15.999999 -64.000000
v -2548.000000 -15.999999 64.000000
v -1868.000000 -15.999999 -64.000061
v -1868.000000 -15.999999 63.999939
v -1868.000000 -47.999996 -64.000061
v -1868.000000 -47.999996 63.999939
v -1772.000000 -47.999996 -64.000061
v -1772.000000 -47.999996 63.999939
v -1772.000000 -79.999992 -64.000061
v -1772.000000 -79.999992 63.999939
v -1676.000000 -79.999992 -64.000061
v -1676.000000 -79.999992 63.999939
v -1676.000000 -111.999992 -64.000061
v -1676.000000 -111.999992 63.999939
v -1580.000000 -111.999992 -64.000061
v -1580.000000 -111.999992 63.999939
v -1580.000000 -143.999985 -64.000061
v -1580.000000 -143.999985 63.999939
v -1484.000000 -143.999985 -64.000000
v -1484.000000 -143.999985 63.999939
v -1484.000000 -175.999985 -64.000000
v -1484.000000 -175.999985 63.999939
v -1388.000000 -175.999985 -64.000000
v -1388.000000 -175.999985 64.000000
v -1388.000000 -207.999985 -64.000000
v -1388.000000 -207.999985 64.000000
v -524.000000 -207.999985 -64.000000
v -524.000000 -207.999985 63.999985
v -236.000000 -103.999992 63.999996
v 820.000000 -103.999992 -63.999996
v 820.000000 -103.999992 64.000000
vt 0.000000 0.000000
vt 0.000000 0.000000
vt 0.000000 0.000000
vt 0.000000 0.000000
vt 0.000000 0.000000
vt 0.000000 0.000000
vt 0.000000 0.000000
vt 0.000000 0.000000
vt 0.000000 0.000000
vt 0.000000 0.000000
vt 0.000000 0.000000
vt 0.000000 0.000000
vt 0.000000 0.000000
vt 0.000000 0.000000
vt 0.000000 0.000000
vt 0.000000 0.000000
vt 0.000000 0.000000
vt 0.000000 0.000000
vt 0.000000 0.000000
vt 0.000000 0.000000
vt 0.000000 0.000000
vt 0.000000 0.000000
vt 0.000000 0.000000
vt 0.000000 0.000000
vt 0.000000 0.000000
vt 0.000000 0.000000
vt 0.000000 0.000000
vt 0.000000 0.000000
vt 0.000000 0.000000
vt 0.000000 0.000000
vt 0.000000 0.000000
vt 0.000000 0.000000
vt 0.000000 0.000000
vt 0.000000 0.000000
vt 0.000000 0.000000
vt 0.000000 0.000000
vt 0.000000 0.000000
vt 0.000000 0.000000
vt 0.000000 0.000000
vt 0.000000 0.000000
vt 0.000000 0.000000
vt 0.000000 0.000000
vt 0.000000 0.000000
vt 0.000000 0.000000
vt 0.000000 0.000000
vt 0.000000 0.000000
vt 0.000000 0.000000
vt 0.000000 0.000000
vt 0.000000 0.000000
vt 0.000000 0.000000
vt 0.000000 0.000000
vt 0.000000 0.000000
vt 0.000000 0.000000
vt 0.000000 0.000000
vt 0.000000 0.000000
vt 0.000000 0.000000
vt 0.000000 0.000000
vt 0.000000 0.000000
vt 0.000000 0.000000
vt 0.000000 0.000000
vt 0.000000 0.000000
vt 0.000000 0.000000
vt 0.000000 0.000000
vt 0.000000 0.000000
vt 0.000000 0.000000
vt 0.000000 0.000000
vt 0.000000 0.000000
vt 0.000000 0.000000
vt 0.000000 0.000000
vt 0.000000 0.000000
vn 0.0000 1.0000 0.0000
vn -0.3162 0.9487 0.0000
vn 0.3162 0.9487 0.0000
vn -0.4138 0.9104 0.0000
vn 0.4191 0.9080 0.0000
vn -0.3417 0.9398 0.0000
vn -1.0000 0.0000 0.0000
vn 1.0000 0.0000 0.0000
vn -0.3396 0.9406 0.0000
usemtl w1
s off
f 181/59/18 182/60/18 184/61/18 183/62/18
f 183/62/19 184/61/19 186/63/19 185/64/19
f 185/64/18 186/63/18 188/65/18 187/66/18
f 187/66/20 188/65/20 190/67/20 189/68/20
f 189/68/18 190/67/18 192/69/18 191/70/18
f 191/70/21 192/69/21 194/71/21 193/72/21
f 193/72/19 194/71/19 196/73/19 195/74/19
f 195/74/18 196/73/18 198/75/18 197/76/18
f 197/76/22 198/75/22 200/77/22 199/78/22
f 199/78/18 200/77/18 202/79/18 201/80/18
f 201/80/23 202/79/23 204/81/23 203/82/23
f 203/82/18 204/81/18 206/83/18 205/84/18
f 205/84/20 206/83/20 208/85/20 207/86/20
f 210/87/24 211/88/24 213/89/24 212/90/24
f 212/90/18 213/89/18 215/91/18 214/92/18
f 214/92/24 215/91/24 217/93/24 216/94/24
f 216/94/18 217/93/18 219/95/18 218/96/18
f 218/96/24 219/95/24 221/97/24 220/98/24
f 220/98/18 221/97/18 223/99/18 222/100/18
f 222/100/25 223/99/25 225/101/25 224/102/25
f 224/102/18 225/101/18 227/103/18 226/104/18
f 226/104/25 227/103/25 229/105/25 228/106/25
f 228/106/18 229/105/18 231/107/18 230/108/18
f 230/108/25 231/107/25 233/109/25 232/110/25
f 232/110/18 233/109/18 235/111/18 234/112/18
f 234/112/25 235/111/25 237/113/25 236/114/25
f 236/114/18 237/113/18 239/115/18 238/116/18
f 238/116/25 239/115/25 241/117/25 240/118/25
f 240/118/18 241/117/18 243/119/18 242/120/18
f 242/120/25 243/119/25 245/121/25 244/122/25
f 244/122/18 245/121/18 247/123/18 246/124/18
f 246/124/26 247/123/26 248/125/26 209/126/26
f 207/86/18 208/85/18 211/88/18 210/87/18
f 209/126/18 248/125/18 250/127/18 249/128/18
o bg
v -9936.000000 447.999969 0.000000
v -9936.000000 -447.999969 0.000000
v 9936.000000 447.999969 0.000000
v 9936.000000 -447.999969 0.000000
vt 0.000000 1.000000
vt 1.000000 1.000000
vt 1.000000 0.000000
vt 0.000000 0.000000
vn 0.0000 0.0000 1.0000
usemtl None_course1.png.001
s off
f 251/129/27 252/130/27 254/131/27 253/132/27
